<svg xmlns="http://www.w3.org/2000/svg" xmlns:xlink="http://www.w3.org/1999/xlink" viewBox="0 0 366.44 87"><defs><style>.cls-1{fill:#ff8300;}.cls-2{fill:#555;}.cls-3{fill:url(#linear-gradient);}</style><linearGradient id="linear-gradient" x1="67.83" y1="43.88" x2="121.56" y2="43.88" gradientUnits="userSpaceOnUse"><stop offset="0.22" stop-color="#ff7b00"/><stop offset="0.51" stop-color="#ff9a11"/><stop offset="0.76" stop-color="#ffaf1c"/></linearGradient></defs><g id="Layer_2" data-name="Layer 2"><g id="Layer_1-2" data-name="Layer 1"><rect class="cls-1" x="197.43" width="9.4" height="66.05" rx="1.98"/><rect class="cls-1" x="197.43" width="9.4" height="66.05" rx="1.98"/><path class="cls-1" d="M234.15,21.94c-12.8,0-22.1,9.41-22.1,22.37,0,13.12,9.3,22.64,22.1,22.64,8.4,0,15.37-3.67,19.12-10.06a2,2,0,0,0-1-2.85l-2-.73c-.86-.3-1.72-.61-2.53-.93a1.94,1.94,0,0,0-2.34.64,13,13,0,0,1-11,5.34c-6.35,0-11.2-3.56-12.66-9.29a.74.74,0,0,1,.14-.62.75.75,0,0,1,.59-.29h31.15a2,2,0,0,0,2-1.92c0-.66,0-1.34,0-1.93C255.62,31.14,246.79,21.94,234.15,21.94Zm11.72,18.32a.72.72,0,0,1-.59.29H222.49a.72.72,0,0,1-.59-.29.74.74,0,0,1-.14-.62c1.44-5.62,6.18-9.1,12.39-9.1,6,0,10.47,3.4,11.86,9.11A.71.71,0,0,1,245.87,40.26Z"/><path class="cls-1" d="M234.15,21.94c-12.8,0-22.1,9.41-22.1,22.37,0,13.12,9.3,22.64,22.1,22.64,8.4,0,15.37-3.67,19.12-10.06a2,2,0,0,0-1-2.85l-2-.73c-.86-.3-1.72-.61-2.53-.93a1.94,1.94,0,0,0-2.34.64,13,13,0,0,1-11,5.34c-6.35,0-11.2-3.56-12.66-9.29a.74.74,0,0,1,.14-.62.75.75,0,0,1,.59-.29h31.15a2,2,0,0,0,2-1.92c0-.66,0-1.34,0-1.93C255.62,31.14,246.79,21.94,234.15,21.94Zm11.72,18.32a.72.72,0,0,1-.59.29H222.49a.72.72,0,0,1-.59-.29.74.74,0,0,1-.14-.62c1.44-5.62,6.18-9.1,12.39-9.1,6,0,10.47,3.4,11.86,9.11A.71.71,0,0,1,245.87,40.26Z"/><path class="cls-1" d="M303.58,22.84h-5.42a2,2,0,0,0-2,1.95V26a.7.7,0,0,1-.43.66.68.68,0,0,1-.77-.13,19.13,19.13,0,0,0-12.93-4.63c-12.7,0-21.92,9.45-21.92,22.46S269.58,67,282.08,67A19.27,19.27,0,0,0,295,62.16a.72.72,0,0,1,1.21.53V64.1a2,2,0,0,0,2,2h5.42a2,2,0,0,0,1.95-2V24.79A2,2,0,0,0,303.58,22.84ZM282.8,57.73c-7.44,0-13.06-5.77-13.06-13.42s5.49-13.14,13.06-13.14c6.62,0,13.32,4.51,13.32,13.14C296.12,53.53,289.22,57.73,282.8,57.73Z"/><path class="cls-1" d="M303.58,22.84h-5.42a2,2,0,0,0-2,1.95V26a.7.7,0,0,1-.43.66.68.68,0,0,1-.77-.13,19.13,19.13,0,0,0-12.93-4.63c-12.7,0-21.92,9.45-21.92,22.46S269.58,67,282.08,67A19.27,19.27,0,0,0,295,62.16a.72.72,0,0,1,1.21.53V64.1a2,2,0,0,0,2,2h5.42a2,2,0,0,0,1.95-2V24.79A2,2,0,0,0,303.58,22.84ZM282.8,57.73c-7.44,0-13.06-5.77-13.06-13.42s5.49-13.14,13.06-13.14c6.62,0,13.32,4.51,13.32,13.14C296.12,53.53,289.22,57.73,282.8,57.73Z"/><path class="cls-1" d="M335.54,21.94a18.63,18.63,0,0,0-12.81,4.83.74.74,0,0,1-1.24-.53V24.8a2,2,0,0,0-1.95-2h-5.49a2,2,0,0,0-2,2V84.5a2,2,0,0,0,2,2h5.49a2,2,0,0,0,1.95-2V62.89a.71.71,0,0,1,.44-.67.7.7,0,0,1,.79.14A18.89,18.89,0,0,0,335.54,67c12.54,0,21.65-9.41,21.65-22.37C357.19,31.46,348.08,21.94,335.54,21.94Zm-.81,35.79c-6.53,0-13.15-4.49-13.15-13.06,0-9.28,6.82-13.5,13.15-13.5,7.51,0,13,5.68,13,13.5S342.36,57.73,334.73,57.73Z"/><path class="cls-1" d="M335.54,21.94a18.63,18.63,0,0,0-12.81,4.83.74.74,0,0,1-1.24-.53V24.8a2,2,0,0,0-1.95-2h-5.49a2,2,0,0,0-2,2V84.5a2,2,0,0,0,2,2h5.49a2,2,0,0,0,1.95-2V62.89a.71.71,0,0,1,.44-.67.7.7,0,0,1,.79.14A18.89,18.89,0,0,0,335.54,67c12.54,0,21.65-9.41,21.65-22.37C357.19,31.46,348.08,21.94,335.54,21.94Zm-.81,35.79c-6.53,0-13.15-4.49-13.15-13.06,0-9.28,6.82-13.5,13.15-13.5,7.51,0,13,5.68,13,13.5S342.36,57.73,334.73,57.73Z"/><path class="cls-2" d="M134.29,30.52c-.33-.44-.67-.86-1-1.28-.09-.1-.18-.21-.28-.31a22,22,0,0,0-2-2h0a1.67,1.67,0,0,0-1.16-.47,1.58,1.58,0,0,0-1.31.6h0l-3.67,5.19h0a1.69,1.69,0,0,0-.3,1,1.72,1.72,0,0,0,.54,1.24h0a13.31,13.31,0,0,1,2.22,2.68,14,14,0,0,1,1.88,5.57c0,.34.06.67.06,1V44a12.89,12.89,0,0,1-12.9,12.9,13.06,13.06,0,0,1-10.51-5.38L91.31,31A22.44,22.44,0,0,0,50.59,44a20.92,20.92,0,0,0,.12,2.25.71.71,0,0,0,0,.14c.08.74.2,1.48.34,2.2,0,0,0,.05,0,.08a22.34,22.34,0,0,0,7.06,12.11,2.06,2.06,0,0,0,1.3.63A1.91,1.91,0,0,0,61,60.42h0l3.29-4.65a1.67,1.67,0,0,0-.1-2.19h0a14.47,14.47,0,0,1-1.63-1.87A13.44,13.44,0,0,1,60.13,44a12.45,12.45,0,0,1,3.61-9,12.94,12.94,0,0,1,19.83,1.55L98.05,57a22.44,22.44,0,1,0,36.24-26.47Z"/><path class="cls-3" d="M121.56,23.34a1.65,1.65,0,0,0-1.68-1.69h0a25.77,25.77,0,0,0-5.06-.1l-1,.11A22.48,22.48,0,0,0,98.09,31L83.58,51.46a12.33,12.33,0,0,1-10,5.56h-.13a1.67,1.67,0,0,0-1.24.66h0l-.08.1-4,5.61A1.68,1.68,0,0,0,69,66l.09,0a46.35,46.35,0,0,0,6.58.21,22.6,22.6,0,0,0,15.72-9.35l14.41-20.37a13.19,13.19,0,0,1,9.67-5.39h.07a1.69,1.69,0,0,0,1.46-.85l4.21-6A1.67,1.67,0,0,0,121.56,23.34Z"/><path class="cls-2" d="M43.41,22.84H38a2,2,0,0,0-2,2v1.45a.73.73,0,0,1-1.23.53,19.15,19.15,0,0,0-12.9-4.84C9.42,21.94,0,31.67,0,44.58S9.22,67,21.92,67c5.93,0,11.28-2.45,14.21-6.36C35.89,72.33,31.2,78,21.83,78a13.32,13.32,0,0,1-11-5.93,1.94,1.94,0,0,0-2.5-.65c-1.28.65-3.21,1.69-4.51,2.4a2,2,0,0,0-1,1.23A1.9,1.9,0,0,0,3,76.58,21.68,21.68,0,0,0,21.83,87c15.62,0,23.54-9.4,23.54-27.95V24.8A2,2,0,0,0,43.41,22.84ZM22.64,57.72C15,57.72,9.58,52.28,9.58,44.49c0-7.6,5.62-13.33,13.06-13.33C29.06,31.16,36,35.33,36,44.49,36,53.08,29.1,57.72,22.64,57.72Z"/><path class="cls-2" d="M186.21,0h-5.42a2,2,0,0,0-2,2V25.88a.75.75,0,0,1-.46.7.77.77,0,0,1-.84-.15c-3.1-2.85-7.81-4.49-12.93-4.49-12.6,0-21.74,9.44-21.74,22.46,0,12.85,9.39,22.55,21.83,22.55a19.38,19.38,0,0,0,12.85-4.72.77.77,0,0,1,1.29.56v1.27a2,2,0,0,0,2,2h5.42a2,2,0,0,0,2-2V2A2,2,0,0,0,186.21,0Zm-7.5,44.31c0,9.22-6.91,13.41-13.33,13.41-7.39,0-13-5.76-13-13.41s5.46-13.15,13-13.15C172,31.16,178.71,35.68,178.71,44.31Z"/><path class="cls-2" d="M134.28,30.52c-.33-.44-.67-.86-1-1.28-.09-.1-.18-.21-.28-.31a22,22,0,0,0-2-2h0a1.67,1.67,0,0,0-1.16-.47,1.58,1.58,0,0,0-1.3.59h0l-3.68,5.2h0a1.66,1.66,0,0,0-.3,1,1.72,1.72,0,0,0,.54,1.25h0a13,13,0,0,1,2.22,2.68,14,14,0,0,1,1.88,5.57c0,.33.06.66.06,1V44a12.89,12.89,0,0,1-12.89,12.9,13.06,13.06,0,0,1-10.52-5.38L91.3,31A22.44,22.44,0,0,0,50.57,44c0,.76,0,1.51.12,2.25,0,0,0,.09,0,.14.08.74.2,1.48.35,2.2,0,0,0,.05,0,.08a22.34,22.34,0,0,0,7.06,12.11,2.11,2.11,0,0,0,1.31.63A1.86,1.86,0,0,0,61,60.42h0l3.3-4.65a1.7,1.7,0,0,0,.36-1,1.64,1.64,0,0,0-.47-1.15h0a14.47,14.47,0,0,1-1.63-1.87A13.54,13.54,0,0,1,60.11,44a12.48,12.48,0,0,1,3.61-9A13.11,13.11,0,0,1,73,31.06a13,13,0,0,1,10.54,5.46L98,57a22.44,22.44,0,1,0,36.24-26.47Z"/><path class="cls-1" d="M121.56,23.33a1.67,1.67,0,0,0-1.69-1.69h0a25.77,25.77,0,0,0-5.06-.1l-1,.12A22.47,22.47,0,0,0,98.07,31l-14.5,20.5a12.34,12.34,0,0,1-10,5.57h-.13a1.65,1.65,0,0,0-1.23.66h0a.63.63,0,0,0-.08.11c-.88,1.24-2.66,3.76-3.95,5.6a1.65,1.65,0,0,0-.34,1A1.69,1.69,0,0,0,69,66l.1,0a43.52,43.52,0,0,0,6.58.21,22.6,22.6,0,0,0,15.72-9.35l14.41-20.37a13.12,13.12,0,0,1,9.67-5.39h.07a1.68,1.68,0,0,0,1.46-.84l4.21-6A1.7,1.7,0,0,0,121.56,23.33Z"/><path class="cls-2" d="M358.79,16.06h-2v5.71H356V16.06h-2v-.6h4.8Zm7.65,5.71h-.78V16.12h0l-2.18,5.65h-.51l-2.17-5.65h0v5.65H360V15.46h1.44l1.8,4.66h0L365,15.46h1.44Z"/></g></g></svg>