<?xml version="1.0" encoding="utf-8"?>
<!-- Generator: Adobe Illustrator 25.2.1, SVG Export Plug-In . SVG Version: 6.00 Build 0)  -->
<svg version="1.1" id="Layer_1" xmlns="http://www.w3.org/2000/svg" xmlns:xlink="http://www.w3.org/1999/xlink" x="0px" y="0px"
	 viewBox="0 0 366.5 87" style="enable-background:new 0 0 366.5 87;" xml:space="preserve">
<style type="text/css">
	.st0{fill:#FFFFFF;}
	.st1{fill:#FF8300;}
</style>
<path class="st0" d="M134.3,30.5c-0.3-0.4-0.7-0.9-1-1.3l-0.3-0.3c-0.6-0.7-1.3-1.4-2-2l0,0c-0.3-0.3-0.7-0.5-1.2-0.5
	c-0.5,0-1,0.2-1.3,0.6l0,0l-3.7,5.2l0,0c-0.2,0.3-0.3,0.6-0.3,1c0,0.5,0.2,0.9,0.5,1.2l0,0c0.9,0.8,1.6,1.7,2.2,2.7
	c1,1.7,1.7,3.6,1.9,5.6c0,0.3,0.1,0.7,0.1,1c0,0,0,0.2,0,0.2c0,7.1-5.8,12.9-12.9,12.9c0,0,0,0,0,0c-4.2,0-8.1-2-10.5-5.4L91.3,31
	c-4.2-5.9-11.1-9.4-18.3-9.5c-12.4,0-22.4,10.1-22.4,22.5c0,0.8,0,1.5,0.1,2.2c0,0,0,0.1,0,0.1c0.1,0.8,0.2,1.5,0.3,2.2
	c0,0,0,0,0,0.1c1,4.7,3.4,8.9,7,12.1c0.3,0.4,0.8,0.6,1.3,0.6c0.7,0,1.2-0.4,1.5-1l0,0l3.3-4.7c0.2-0.3,0.4-0.6,0.4-1
	c0-0.4-0.2-0.8-0.5-1.2l0,0c-2.6-2.5-4.1-6-4-9.6c-0.1-3.4,1.2-6.6,3.6-9c5-5.1,13.2-5.2,18.3-0.3c0.6,0.6,1.1,1.2,1.5,1.8L98.1,57
	c7.2,10.1,21.2,12.4,31.3,5.2s12.4-21.2,5.2-31.3C134.5,30.8,134.4,30.7,134.3,30.5z"/>
<path class="st1" d="M121.6,23.3c0-0.9-0.7-1.7-1.6-1.7c0,0-0.1,0-0.1,0l0,0c-1.7-0.2-3.4-0.2-5.1-0.1l-1,0.1
	c-6.3,0.7-12,4.1-15.7,9.3L83.6,51.5c-2.2,3.4-6,5.5-10,5.6h-0.1c-0.5,0-0.9,0.3-1.2,0.7l0,0c0,0-0.1,0.1-0.1,0.1l-4,5.6
	c-0.6,0.7-0.4,1.8,0.3,2.4c0.2,0.1,0.3,0.2,0.5,0.3h0.1c2.2,0.2,4.4,0.3,6.6,0.2c6.3-0.7,12.1-4.1,15.8-9.3l14.4-20.4
	c2.3-3.1,5.8-5.1,9.7-5.4h0.1c0.6,0,1.2-0.3,1.4-0.9l4.2-6C121.5,24,121.6,23.7,121.6,23.3z"/>
<path class="st0" d="M43.4,22.8H38c-1.1,0-2,0.9-2,2v1.5c0,0.4-0.3,0.7-0.7,0.7c-0.2,0-0.4-0.1-0.5-0.2c-3.6-3.2-8.2-4.9-12.9-4.9
	C9.4,21.9,0,31.7,0,44.6S9.2,67,21.9,67c5.9,0,11.3-2.4,14.2-6.3c-0.2,11.7-4.9,17.5-14.3,17.5c-4.4,0-8.5-2.2-11-5.9
	c-0.5-0.8-1.6-1.1-2.5-0.7c-1.3,0.7-3.2,1.7-4.5,2.4c-0.5,0.3-0.9,0.7-1,1.2c-0.1,0.5-0.1,1,0.2,1.4C7,83.1,14.2,87.1,21.8,87
	c15.6,0,23.5-9.4,23.5-28V24.8C45.3,23.7,44.5,22.9,43.4,22.8z M22.6,57.7c-7.6,0-13.1-5.4-13.1-13.2c-0.2-7.1,5.4-13.1,12.5-13.3
	c0.2,0,0.4,0,0.6,0c6.4,0,13.4,4.2,13.4,13.3C36,53.1,29.1,57.7,22.6,57.7z"/>
<path class="st0" d="M186.2,0h-5.4c-1.1,0-2,0.9-2,2v23.9c0,0.4-0.4,0.8-0.8,0.8c-0.2,0-0.4-0.1-0.5-0.2c-3.1-2.9-7.8-4.5-12.9-4.5
	c-12.6,0-21.7,9.5-21.7,22.5S152.2,67,164.7,67c4.7,0,9.3-1.6,12.9-4.7c0.3-0.3,0.8-0.3,1.1,0c0.1,0.1,0.2,0.3,0.2,0.5v1.3
	c0,1.1,0.9,2,2,2h5.4c1.1,0,2-0.9,2-2V2C188.2,0.9,187.3,0,186.2,0C186.2,0,186.2,0,186.2,0z M178.7,44.3c0,9.2-6.9,13.4-13.3,13.4
	c-7.4,0-13-5.8-13-13.4s5.5-13.1,13-13.1C172,31.2,178.7,35.7,178.7,44.3z"/>
<path class="st0" d="M199.4,0h5.5c1.1,0,2,0.9,2,2v62.1c0,1.1-0.9,2-2,2h-5.5c-1.1,0-2-0.9-2-2V2C197.4,0.9,198.3,0,199.4,0z"/>
<path class="st0" d="M234.2,21.9c-12.8,0-22.1,9.4-22.1,22.4c0,13.1,9.3,22.6,22.1,22.6c8.4,0,15.4-3.7,19.1-10.1
	c0.5-1,0.2-2.2-0.7-2.7c-0.1,0-0.2-0.1-0.3-0.1c-0.7-0.2-1.3-0.5-2-0.7c-0.9-0.3-1.7-0.6-2.5-0.9c-0.8-0.4-1.8-0.1-2.3,0.6
	c-2.5,3.5-6.7,5.5-11,5.3c-6.4,0-11.2-3.6-12.7-9.3c-0.1-0.2,0-0.4,0.1-0.6c0.1-0.2,0.4-0.3,0.6-0.3h31.2c1.1,0,2-0.8,2-1.9
	c0-0.7,0-1.3,0-1.9C255.6,31.1,246.8,21.9,234.2,21.9z M221.8,39.6c1.4-5.6,6.2-9.1,12.4-9.1c6,0,10.5,3.4,11.9,9.1
	c0.1,0.4-0.2,0.8-0.6,0.9c-0.1,0-0.1,0-0.2,0h-22.8c-0.2,0-0.5-0.1-0.6-0.3C221.8,40.1,221.7,39.9,221.8,39.6z"/>
<path class="st0" d="M303.6,22.8h-5.4c-1.1,0-1.9,0.9-2,2V26c0,0.3-0.2,0.6-0.4,0.7c-0.3,0.1-0.6,0.1-0.8-0.1
	c-3.6-3.1-8.2-4.7-12.9-4.6c-12.7,0-21.9,9.5-21.9,22.5S269.6,67,282.1,67c4.7,0,9.3-1.7,12.9-4.8c0.2-0.2,0.5-0.3,0.8-0.1
	c0.3,0.1,0.4,0.4,0.4,0.7v1.4c0,1.1,0.9,2,2,2h5.4c1.1,0,2-0.9,2-2V24.8C305.5,23.7,304.7,22.9,303.6,22.8z M296.1,44.3
	c0,9.2-6.9,13.4-13.3,13.4c-7.4,0-13.1-5.8-13.1-13.4c-0.3-7,5.2-12.9,12.2-13.1c0.3,0,0.6,0,0.9,0
	C289.4,31.2,296.1,35.7,296.1,44.3z"/>
<path class="st0" d="M335.6,21.9c-4.7-0.1-9.3,1.7-12.8,4.8c-0.2,0.2-0.5,0.3-0.8,0.1c-0.3-0.1-0.4-0.4-0.4-0.7v-1.4
	c0-1.1-0.9-2-2-2H314c-1.1,0-2,0.9-2,2v59.7c0,1.1,0.9,2,2,2h5.5c1.1,0,2-0.9,2-2V62.9c0-0.3,0.2-0.6,0.4-0.7
	c0.3-0.1,0.6-0.1,0.8,0.1c3.5,3.1,8.1,4.7,12.8,4.6c12.5,0,21.6-9.4,21.6-22.4S348.1,21.9,335.6,21.9z M347.7,44.7
	c0,7.7-5.3,13.1-13,13.1c-6.5,0-13.1-4.5-13.1-13.1c0-9.3,6.8-13.5,13.1-13.5C342.3,31.2,347.7,36.8,347.7,44.7z"/>
<path class="st0" d="M358.8,16.1h-2v5.7H356v-5.7h-2v-0.6h4.8L358.8,16.1z M366.5,21.8h-0.8v-5.7l0,0l-2.2,5.7H363l-2.2-5.7l0,0v5.7
	H360v-6.3h1.4l1.8,4.7l0,0l1.8-4.7h1.4L366.5,21.8z"/>
</svg>
